<svg width="27" height="27" viewBox="0 0 27 27" fill="none" xmlns="http://www.w3.org/2000/svg">
<path d="M17.7188 11.8125C17.7188 12.0363 17.6299 12.2509 17.4716 12.4091C17.3134 12.5674 17.0988 12.6563 16.875 12.6563H10.125C9.90122 12.6563 9.68661 12.5674 9.52838 12.4091C9.37014 12.2509 9.28125 12.0363 9.28125 11.8125C9.28125 11.5887 9.37014 11.3741 9.52838 11.2159C9.68661 11.0577 9.90122 10.9688 10.125 10.9688H16.875C17.0988 10.9688 17.3134 11.0577 17.4716 11.2159C17.6299 11.3741 17.7188 11.5887 17.7188 11.8125ZM16.875 14.3438H10.125C9.90122 14.3438 9.68661 14.4327 9.52838 14.5909C9.37014 14.7491 9.28125 14.9637 9.28125 15.1875C9.28125 15.4113 9.37014 15.6259 9.52838 15.7841C9.68661 15.9424 9.90122 16.0313 10.125 16.0313H16.875C17.0988 16.0313 17.3134 15.9424 17.4716 15.7841C17.6299 15.6259 17.7188 15.4113 17.7188 15.1875C17.7188 14.9637 17.6299 14.7491 17.4716 14.5909C17.3134 14.4327 17.0988 14.3438 16.875 14.3438ZM24.4688 13.5C24.4692 15.3937 23.9793 17.2553 23.0468 18.9035C22.1143 20.5518 20.771 21.9305 19.1475 22.9055C17.5241 23.8806 15.6759 24.4187 13.7828 24.4675C11.8897 24.5163 10.0162 24.0742 8.34469 23.1842L4.75348 24.3812C4.45615 24.4804 4.13707 24.4948 3.83202 24.4228C3.52697 24.3508 3.248 24.1953 3.02637 23.9736C2.80475 23.752 2.64922 23.473 2.57723 23.168C2.50524 22.8629 2.51963 22.5439 2.61879 22.2465L3.81586 18.6553C3.03344 17.1843 2.59643 15.5543 2.538 13.8892C2.47957 12.224 2.80126 10.5674 3.47864 9.04516C4.15603 7.52289 5.17131 6.17494 6.44743 5.10364C7.72354 4.03234 9.22695 3.26583 10.8435 2.86231C12.4601 2.45878 14.1474 2.42884 15.7772 2.77476C17.4071 3.12068 18.9368 3.83337 20.2501 4.85872C21.5634 5.88408 22.6259 7.19515 23.3568 8.69243C24.0878 10.1897 24.4681 11.8338 24.4688 13.5ZM22.7812 13.5C22.7808 12.0763 22.4529 10.6718 21.8228 9.39511C21.1928 8.11843 20.2774 7.00381 19.1477 6.13749C18.0179 5.27117 16.7039 4.67637 15.3075 4.39911C13.9111 4.12184 12.4696 4.16955 11.0945 4.53855C9.71945 4.90754 8.44772 5.58792 7.3777 6.52705C6.30768 7.46618 5.46805 8.63888 4.92377 9.95444C4.37949 11.27 4.14515 12.6931 4.23889 14.1137C4.33262 15.5343 4.75192 16.9143 5.46434 18.147C5.52413 18.2505 5.56125 18.3655 5.57326 18.4844C5.58526 18.6033 5.57186 18.7234 5.53395 18.8367L4.21875 22.7813L8.16328 21.4661C8.2492 21.4368 8.33934 21.4218 8.43012 21.4218C8.5783 21.422 8.72381 21.4613 8.85199 21.5357C10.263 22.352 11.864 22.7824 13.4941 22.7834C15.1242 22.7844 16.7259 22.3561 18.1379 21.5415C19.5498 20.727 20.7224 19.5549 21.5375 18.1432C22.3527 16.7316 22.7816 15.1301 22.7812 13.5Z" fill="white"/>
</svg>
