<svg width="27" height="27" viewBox="0 0 27 27" fill="none" xmlns="http://www.w3.org/2000/svg">
<path d="M23.9752 3.02482C23.763 2.81275 23.4981 2.66109 23.2078 2.58546C22.9174 2.50982 22.6122 2.51295 22.3235 2.59451H22.3077L2.06402 8.73701C1.73538 8.83172 1.44327 9.02406 1.22641 9.28855C1.00955 9.55303 0.878178 9.87716 0.849699 10.218C0.82122 10.5588 0.89698 10.9003 1.06694 11.1971C1.2369 11.4939 1.49304 11.732 1.80141 11.88L10.7578 16.2422L15.1137 25.1933C15.2492 25.4824 15.4646 25.7267 15.7344 25.8973C16.0043 26.068 16.3174 26.1578 16.6366 26.1562C16.6852 26.1562 16.7337 26.1541 16.7822 26.1499C17.1227 26.1223 17.4467 25.9912 17.7107 25.7743C17.9746 25.5573 18.1658 25.2648 18.2588 24.936L24.397 4.69228C24.397 4.68701 24.397 4.68173 24.397 4.67646C24.4797 4.38849 24.4841 4.08372 24.41 3.79345C24.3358 3.50319 24.1858 3.23789 23.9752 3.02482ZM16.6461 24.4529L16.6409 24.4677V24.4603L12.4158 15.7802L17.4783 10.7177C17.6298 10.5582 17.7131 10.3458 17.7103 10.1258C17.7074 9.90574 17.6188 9.69553 17.4632 9.53994C17.3076 9.38435 17.0974 9.29569 16.8774 9.29288C16.6574 9.29006 16.445 9.3733 16.2854 9.52486L11.2229 14.5874L2.53969 10.3623H2.53231H2.54707L22.7812 4.21873L16.6461 24.4529Z" fill="white"/>
</svg>
